<?xml version="1.0" encoding="UTF-8" standalone="no"?>
<!-- Created with Inkscape (http://www.inkscape.org/) -->

<svg
   width="79.668449mm"
   height="79.668457mm"
   viewBox="0 0 79.668449 79.668457"
   version="1.1"
   id="svg1"
   sodipodi:docname="logo.svg"
   inkscape:export-filename="logo.png"
   inkscape:export-xdpi="96"
   inkscape:export-ydpi="96"
   inkscape:version="1.4 (86a8ad7, 2024-10-11)"
   xmlns:inkscape="http://www.inkscape.org/namespaces/inkscape"
   xmlns:sodipodi="http://sodipodi.sourceforge.net/DTD/sodipodi-0.dtd"
   xmlns="http://www.w3.org/2000/svg"
   xmlns:svg="http://www.w3.org/2000/svg">
  <sodipodi:namedview
     id="namedview1"
     pagecolor="#ffffff"
     bordercolor="#000000"
     borderopacity="0.25"
     inkscape:showpageshadow="2"
     inkscape:pageopacity="0.0"
     inkscape:pagecheckerboard="0"
     inkscape:deskcolor="#d1d1d1"
     inkscape:document-units="mm"
     inkscape:zoom="2.6800914"
     inkscape:cx="150.368"
     inkscape:cy="150.55456"
     inkscape:window-width="1920"
     inkscape:window-height="1009"
     inkscape:window-x="1912"
     inkscape:window-y="-8"
     inkscape:window-maximized="1"
     inkscape:current-layer="svg1" />
  <defs
     id="defs1" />
  <g
     id="layer1"
     transform="translate(-50.728016,-128.92904)">
    <circle
       style="opacity:1;fill:#f9f9f9;fill-opacity:1;stroke:none;stroke-width:18.521;stroke-linecap:square;paint-order:stroke fill markers"
       id="path5"
       cx="90.562241"
       cy="168.76326"
       r="39.834225" />
    <path
       d="m 80.822974,130.78943 v 5.80895 h 2.267045 c 0.121363,-0.49649 0.275976,-1.02035 0.463537,-1.572 0.187562,-0.56268 0.408215,-1.00949 0.661975,-1.34048 0.264793,-0.331 0.573502,-0.57418 0.926559,-0.72864 0.353057,-0.15446 0.860922,-0.23151 1.522904,-0.23151 h 1.340487 v 16.49977 c 0,0.52958 -0.01651,0.9764 -0.04961,1.34048 -0.0331,0.35306 -0.116167,0.64578 -0.248564,0.87747 -0.132397,0.23169 -0.33654,0.41382 -0.612366,0.54622 -0.264792,0.12136 -0.628535,0.22042 -1.091923,0.29766 v 1.09244 h 9.13536 v -1.09244 c -0.386157,-0.0552 -0.695382,-0.12671 -0.927075,-0.21498 -0.220662,-0.0993 -0.397288,-0.20437 -0.529684,-0.31471 -0.121363,-0.12136 -0.225928,-0.27545 -0.314192,-0.46302 -0.08826,-0.18756 -0.148801,-0.43074 -0.181901,-0.72864 -0.0331,-0.30892 -0.04961,-0.75573 -0.04961,-1.34048 v -16.49977 h 1.191142 c 0.452355,0 0.816614,0.0275 1.09244,0.0827 0.286858,0.0441 0.524022,0.11619 0.711584,0.21549 0.187562,0.0993 0.364188,0.23138 0.529684,0.39688 0.165495,0.16549 0.320108,0.37514 0.463537,0.6289 0.154463,0.24273 0.292048,0.54042 0.413412,0.89348 0.121364,0.35306 0.286983,0.90495 0.49661,1.6552 h 2.267565 v -5.80895 z"
       style="-inkscape-font-specification:'Cambria, Bold';baseline-shift:baseline;display:inline;overflow:visible;vector-effect:none;stroke-linecap:square;paint-order:stroke fill markers;enable-background:accumulate;stop-color:#000000;stop-opacity:1"
       id="path15" />
    <path
       d="m 80.119657,184.1469 v 1.09244 c 0.419256,0.11033 0.744475,0.23691 0.976168,0.38034 0.242728,0.13239 0.419354,0.30901 0.529684,0.52968 0.121363,0.22066 0.192907,0.50736 0.214974,0.86041 0.0331,0.35306 0.04961,0.78886 0.04961,1.30742 v 14.26579 c 0,0.52959 -0.01651,0.97089 -0.04961,1.32395 -0.0331,0.34202 -0.110147,0.62924 -0.231511,0.86093 -0.11033,0.22066 -0.286957,0.39677 -0.529683,0.52917 -0.231694,0.12136 -0.551409,0.23745 -0.959632,0.34778 v 1.09244 h 8.688359 v -1.09244 c -0.595785,-0.15446 -1.004071,-0.33108 -1.224731,-0.52968 -0.220661,-0.19859 -0.36977,-0.46327 -0.447002,-0.79427 -0.07723,-0.33098 -0.115755,-0.9104 -0.115755,-1.73788 v -5.32887 h 0.960148 c 0.606818,0 1.053628,0.066 1.340487,0.19844 0.297892,0.13239 0.584587,0.37506 0.860413,0.72812 0.275826,0.35305 0.607064,0.94897 0.993221,1.78749 l 1.290877,2.83031 c 0.805412,1.74323 1.52791,3.05614 2.167826,3.93878 h 6.3717 v -1.09244 c -0.62888,-0.11033 -1.175266,-0.41405 -1.638655,-0.91054 -0.452355,-0.50752 -0.910172,-1.26304 -1.37356,-2.26704 l -1.04283,-2.25051 c -0.430289,-0.90471 -0.915624,-1.64974 -1.456242,-2.23449 -0.529586,-0.59578 -1.202553,-1.07011 -2.018998,-1.42317 v -0.16536 c 1.081238,-0.45236 1.941837,-0.93219 2.581754,-1.43971 0.650949,-0.51855 1.163801,-1.164 1.538924,-1.93631 0.386156,-0.77232 0.579293,-1.69948 0.579293,-2.78071 0,-0.82748 -0.110068,-1.54998 -0.330729,-2.16783 -0.209627,-0.62889 -0.513349,-1.17527 -0.910539,-1.63866 -0.397189,-0.47442 -0.882524,-0.86568 -1.456242,-1.1746 -0.684048,-0.37513 -1.484111,-0.65133 -2.399853,-0.82786 -0.90471,-0.18756 -2.007976,-0.28112 -3.309876,-0.28112 z m 8.771041,1.93632 c 1.390163,0 2.438396,0.37526 3.144511,1.12551 0.706115,0.75024 1.059367,1.87553 1.059367,3.37602 0,0.68405 -0.06656,1.31299 -0.198954,1.88671 -0.121364,0.57372 -0.353024,1.07556 -0.695048,1.50585 -0.330992,0.41925 -0.783305,0.75049 -1.357023,0.99322 -0.573718,0.23169 -1.30172,0.34726 -2.184363,0.34726 h -1.63866 v -9.2015 c 0.297892,-0.0221 0.921328,-0.0331 1.87017,-0.0331 z"
       style="-inkscape-font-specification:'Cambria, Bold';baseline-shift:baseline;display:inline;overflow:visible;vector-effect:none;stroke-linecap:square;paint-order:stroke fill markers;enable-background:accumulate;stop-color:#000000;stop-opacity:1"
       id="path14" />
    <path
       d="m 62.969283,157.41003 -6.901387,18.38699 c -0.28686,0.78335 -0.557044,1.38426 -0.810804,1.80351 -0.25376,0.41926 -0.534951,0.75049 -0.843876,0.99322 -0.308925,0.24273 -0.667681,0.38633 -1.075903,0.43046 v 1.09193 h 7.066752 v -1.09193 c -1.147436,-0.0772 -1.721342,-0.65663 -1.721342,-1.73787 0,-0.46339 0.05005,-0.8992 0.149345,-1.30742 0.0993,-0.41926 0.225876,-0.84955 0.380338,-1.29087 l 0.54622,-1.572 h 7.066752 l 0.447002,1.6216 c 0.176528,0.63992 0.303107,1.16928 0.380338,1.58854 0.07723,0.41925 0.115755,0.80002 0.115755,1.14205 0,0.46338 -0.137585,0.82214 -0.413411,1.0759 -0.275826,0.25376 -0.700623,0.41387 -1.274341,0.48007 v 1.09193 h 9.13536 v -1.09193 c -0.474421,-0.0993 -0.844184,-0.25391 -1.108977,-0.46353 -0.264793,-0.22066 -0.479943,-0.50185 -0.645438,-0.84388 -0.165496,-0.35306 -0.369639,-0.94348 -0.612366,-1.77095 l -5.461165,-18.53582 z m 0.728121,4.45192 2.6479,9.31778 h -5.957776 z"
       style="-inkscape-font-specification:'Cambria, Bold';baseline-shift:baseline;display:inline;overflow:visible;vector-effect:none;stroke-linecap:square;paint-order:stroke fill markers;enable-background:accumulate;stop-color:#000000;stop-opacity:1"
       id="path13" />
    <path
       d="m 86.217993,157.46842 v 1.09193 c 0.419255,0.11033 0.744474,0.23192 0.976168,0.36432 0.242727,0.1324 0.419353,0.31452 0.529683,0.54622 0.121363,0.22066 0.193424,0.50185 0.215491,0.84387 0.0331,0.34202 0.04961,0.77783 0.04961,1.30742 v 14.28233 c 0,0.52959 -0.01651,0.97089 -0.04961,1.32395 -0.0331,0.34203 -0.110663,0.62872 -0.232027,0.86041 -0.11033,0.22066 -0.286956,0.39729 -0.529683,0.52968 -0.231694,0.12137 -0.551409,0.23694 -0.959632,0.34727 v 1.09244 h 8.688359 v -1.09244 c -0.319959,-0.0772 -0.590143,-0.16528 -0.810803,-0.26458 -0.220661,-0.11034 -0.397287,-0.23743 -0.529684,-0.38086 -0.121361,-0.14342 -0.21492,-0.31953 -0.28112,-0.52916 -0.0662,-0.20963 -0.110225,-0.48034 -0.132291,-0.81132 -0.02207,-0.331 -0.03307,-0.68923 -0.03307,-1.07539 v -14.2658 c 0,-0.61784 0.02201,-1.08667 0.06615,-1.40663 0.04413,-0.31996 0.121179,-0.57914 0.23151,-0.77773 0.110331,-0.19859 0.270447,-0.36421 0.480074,-0.49661 0.220661,-0.14343 0.556886,-0.27603 1.009241,-0.39739 v -1.09193 z"
       style="-inkscape-font-specification:'Cambria, Bold';baseline-shift:baseline;display:inline;overflow:visible;vector-effect:none;stroke-linecap:square;paint-order:stroke fill markers;enable-background:accumulate;stop-color:#000000;stop-opacity:1"
       id="path12" />
    <path
       d="m 115.54023,157.41003 -6.90087,18.38699 c -0.28686,0.78335 -0.55756,1.38426 -0.81132,1.80351 -0.25376,0.41926 -0.53495,0.75049 -0.84387,0.99322 -0.30893,0.24273 -0.66769,0.38633 -1.07591,0.43046 v 1.09193 h 7.06676 v -1.09193 c -1.14744,-0.0772 -1.72083,-0.65663 -1.72083,-1.73787 0,-0.46339 0.0495,-0.8992 0.14883,-1.30742 0.0993,-0.41926 0.22588,-0.84955 0.38034,-1.29087 l 0.54622,-1.572 h 7.06675 l 0.447,1.6216 c 0.17653,0.63992 0.30311,1.16928 0.38034,1.58854 0.0772,0.41925 0.11627,0.80002 0.11627,1.14205 0,0.46338 -0.1381,0.82214 -0.41393,1.0759 -0.27582,0.25376 -0.70062,0.41387 -1.27434,0.48007 v 1.09193 h 9.13536 v -1.09193 c -0.47442,-0.0993 -0.84418,-0.25391 -1.10897,-0.46353 -0.2648,-0.22066 -0.47995,-0.50185 -0.64544,-0.84388 -0.1655,-0.35306 -0.36964,-0.94348 -0.61237,-1.77095 l -5.46116,-18.53582 z m 0.72813,4.45192 2.6479,9.31778 h -5.95778 z"
       style="-inkscape-font-specification:'Cambria, Bold';baseline-shift:baseline;display:inline;overflow:visible;vector-effect:none;stroke-linecap:square;paint-order:stroke fill markers;enable-background:accumulate;stop-color:#000000;stop-opacity:1"
       id="path11" />
  </g>
</svg>
